<?xml version="1.0" encoding="utf-8"?>
<!-- Generator: Adobe Illustrator 24.1.2, SVG Export Plug-In . SVG Version: 6.00 Build 0)  -->
<svg version="1.1" xmlns="http://www.w3.org/2000/svg" xmlns:xlink="http://www.w3.org/1999/xlink" x="0px" y="0px"
	 viewBox="0 0 1000 1000" style="enable-background:new 0 0 1000 1000;" xml:space="preserve">
<style type="text/css">
	.st0{display:none;opacity:0.62;}
	.st1{fill:none;}
	.st2{fill:#74FFFD;}
</style>
<g id="Слой_1" class="st0">
	
		<image style="display:inline;overflow:visible;" width="1000" height="1000" xlink:href="ReadyBashes/IcaonBash-5.png"  transform="matrix(0.912 0 0 0.912 44 44)">
	</image>
</g>
<g id="Слой_2">
	<path d="M917,220c-15-9-245-108-245-108s-10-10-22,5s-85,135-85,135l-230,30l-21-38L96.5,140.5c0,0-18-4-21,19L142,323v414l237,155
		l431-51V424l115-181C925,243,932,229,917,220z M596,307l144,97l-145,17L596,307z M131,197l154,74l63,147L179,307L131,197z M362,838
		L181,719V356l181,117V838z M348,317l208-25v133l-154,18L348,317z M781,806l-378,47l-1-365l379-45V806z M793,388L603,263l69-110
		l210,90L793,388z"/>
	<polygon class="st1" points="348,418 179,307 131,197 285,271 	"/>
	<polygon class="st1" points="362,473 362,838 181,719 181,356 	"/>
	<polygon class="st1" points="556,292 556,425 402,443 348,317 	"/>
	<polygon class="st1" points="740,404 595,421 596,307 	"/>
	<polygon class="st1" points="781,443 781,806 403,853 402,488 	"/>
	<polygon class="st1" points="882,243 793,388 603,263 672,153 	"/>
	<polygon class="st1" points="348,418 179,307 131,197 285,271 	"/>
	<polygon class="st1" points="362,473 362,838 181,719 181,356 	"/>
	<polygon class="st1" points="556,292 556,425 402,443 348,317 	"/>
	<polygon class="st1" points="740,404 595,421 596,307 	"/>
	<polygon class="st1" points="882,243 793,388 603,263 672,153 	"/>
	<path class="st2" d="M718.6,723.8h-1.9v-14.9c0,0-17.6-0.9-19.5,4.6v-2.8l-23.2,1.9v14.9c0,0-7.4-6.5-16.7-1.9l-6.5-3.7
		c0,0,0-2.8-0.9-4.6s-4.6-3.7-4.6-3.7s-2.8-19.5,0.9-29.8c0,0-9.3-14.9-5.6-25.1l1.9,1.9c0,0,5.6,37.2,26,25.1c0,0-5.6-0.9-4.6-3.7
		c0,0,13.9,1.9,13.9-11.2c0,0-6.5,3.7-10.2,0c0,0,3.7,0,3.7-1.9c0,0-7.4,2.8-19.5-26c0,0-5.6-8.4-13.9-2.8c0,0-5.6-5.6-7.4-15.8
		c0,0-19.5-14.9-20.4-23.3c0,0,1.9,1.9,4.6,0c0,0-4.6-1.9-4.6-3.7c0,0,2.8,3.7,7.4,0.9c0,0-2.8-0.9-2.8-2.8c0,0,4.6,2.8,9.3-0.9
		c0,0-4.6,0-4.6-3.7c0,0,4.6,1.9,9.3-1.9c0,0-4.6,0-3.7-3.7c0,0,5.6,2.8,11.1-4.7c0,0-6.5,0.9-6.5-3.7c0,0,6.5,0.9,8.3-1.9
		c0,0-6.5-2.8-4.6-9.3c0,0,5.6-12.1,15.8-20.5c0,0,7.4-4.7,12.1-5.6c0,0,11.1-4.7,10.2-8.4c0,0,0.9-1.9-2.8-1.9c0,0-1.8-0.9-0.9-1.9
		c0,0,11.1-4.6,10.2-16.8c0,0,0-4.6-10.2-1.9c0,0-14.8,5.6-19.5,2.8c0,0-8.3-2.8-11.1-5.6c0,0-6.5-3.7-30.6,8.4c0,0-24.1,0-26-3.7
		c0,0-2.8,7.4,7.4,14.9c0,0-14.8,14.9-28.8,12.1c0,0,0.9,5.6,4.6,4.6c0,0-7.4,3.7-13.9,0c0,0-0.9,5.6,4.6,7.5
		c5.6,1.9-10.2,1.9-11.1,0c-0.9-1.9-0.9,5.6,5.6,6.5c0,0-3.7,1.9-6.5,0c0,0,0.9,4.7,5.6,4.7c0,0-3.7,3.7-7.4,3.7
		c0,0,0.9,2.8,4.6,2.8c0,0-32.5,7.5-1.8,129.3c0,0,2.8,20.5-10.2,33.5c0,0-2.8,2.8-0.9,5.6l-3.7,2.8c0,0-0.9-5.6-9.3-5.6l-26,3.7
		v17.7h-0.9c0,0-99.3-78.1-5.6-214c0,0,89.1-111.6,209.6-46.5C696.3,494,823.4,575,718.6,723.8z"/>
	<path class="st2" d="M644.3,518.2c-9.3,3.7-12.1-2.8-12.1-2.8C639.7,513.6,644.3,518.2,644.3,518.2z"/>
	<path class="st2" d="M572.9,716.4L559,722c0,0-0.9-21.4,7.4-31.6c0,0,3.7-11.2,3.7-23.3C570.2,667.1,580.3,668,572.9,716.4z"/>
	<path class="st2" d="M605.4,709.9l3.7-4.7l-3.7-8.4c0,0-5.6-20.5,13-9.3c0,0,13.9,16.8,16.7,27.9
		C635.1,715.5,621.2,709.9,605.4,709.9z"/>
	<g>
		<g>
			<path d="M499,740.4c3.8-0.4,5.7-0.6,9.5-1.1c6.3-0.7,10.6-0.9,12.8-0.7c2.2,0.2,4,1.3,5.5,3.1c1.4,1.9,2.1,5,2.1,9.4
				c0,4-0.5,6.8-1.4,8.3c-1,1.5-2.9,2.5-5.8,3.2c2.6,0.4,4.4,1,5.3,2c0.9,1,1.5,2,1.7,2.9c0.2,0.9,0.3,3.4,0.4,7.6
				c0,5.4,0,8.2,0.1,13.6c-4.9,0.6-7.4,0.9-12.3,1.4c0-6.9-0.1-10.3-0.1-17.2c0-2.8-0.2-4.5-0.7-5.1c-0.4-0.6-1.6-0.8-3.4-0.6
				c0,9.3,0.1,14,0.1,23.3c-5.3,0.6-8,0.9-13.3,1.6C499.2,774.9,499.1,757.7,499,740.4z M512.4,747.8c0,4.6,0,6.9,0.1,11.5
				c1.5-0.2,2.5-0.5,3.1-1c0.6-0.5,0.9-1.9,0.9-4.1c0-1.1,0-1.7,0-2.8c0-1.6-0.3-2.7-0.9-3.1C515,747.7,513.9,747.6,512.4,747.8z"/>
			<path d="M561.9,764.5c-6.6,0.8-9.8,1.1-16.4,1.9c0,3.7,0,5.5,0,9.1c0,1.9,0.2,3.1,0.4,3.6c0.3,0.5,0.8,0.7,1.6,0.6
				c1-0.1,1.6-0.6,1.9-1.3c0.3-0.8,0.5-2.2,0.5-4.3c0-2.2,0-3.3,0-5.6c4.8-0.6,7.2-0.8,12-1.4c0,1.2,0,1.9,0,3.1
				c0,2.6-0.1,4.6-0.5,6.1c-0.3,1.4-1.1,3-2.3,4.7c-1.2,1.7-2.7,3.1-4.5,4.1c-1.8,1-4.1,1.7-6.9,2c-2.7,0.3-5.1,0.2-7.1-0.3
				c-2.1-0.5-3.7-1.4-4.8-2.7c-1.2-1.2-2-2.7-2.4-4.2c-0.4-1.6-0.7-4-0.7-7.1c0-4.9,0-7.4-0.1-12.3c0-3.7,0.5-6.7,1.4-8.9
				c1-2.2,2.6-4.1,4.8-5.5c2.2-1.4,4.8-2.2,7.7-2.6c3.6-0.4,6.5,0,8.8,1.1c2.3,1.1,3.9,2.7,4.9,4.9c0.9,2.2,1.4,5.3,1.4,9.4
				C561.9,761.2,561.9,762.3,561.9,764.5z M549.2,759.1c0-1.2,0-1.9,0-3.1c0-2.2-0.1-3.6-0.4-4.2c-0.2-0.6-0.7-0.9-1.4-0.8
				c-0.9,0.1-1.4,0.4-1.6,1c-0.2,0.6-0.3,2-0.3,4.4c0,1.2,0,1.9,0,3.1C547,759.4,547.7,759.3,549.2,759.1z"/>
			<path d="M594.2,729.8c0.1,17.1,0.1,34.2,0.2,51.3c-5,0.6-7.5,0.9-12.6,1.5c0-1.2,0-1.8,0-3.1c-1.2,1.4-2.5,2.5-3.8,3.3
				c-1.3,0.8-2.7,1.3-4.2,1.4c-2,0.2-3.7-0.1-5.1-1c-1.4-0.9-2.4-2-2.8-3.3c-0.4-1.3-0.6-3.5-0.6-6.7c0-7.9,0-11.8-0.1-19.7
				c0-3.2,0.2-5.6,0.6-7c0.4-1.4,1.3-2.7,2.8-3.9c1.5-1.2,3.2-1.9,5.2-2.1c1.6-0.2,3-0.1,4.3,0.4c1.3,0.4,2.5,1.2,3.6,2.2
				c0-4.8,0-7.2,0-12C586.6,730.6,589.1,730.4,594.2,729.8z M581.6,751.1c0-1.5-0.1-2.6-0.4-3.1c-0.3-0.5-0.8-0.7-1.5-0.6
				c-0.7,0.1-1.3,0.4-1.5,0.9c-0.3,0.5-0.4,1.6-0.4,3.2c0,8.3,0,12.4,0.1,20.6c0,1.7,0.1,2.8,0.4,3.3c0.3,0.5,0.7,0.7,1.4,0.6
				c0.8-0.1,1.4-0.5,1.6-1.1c0.3-0.6,0.4-2.1,0.4-4.5C581.7,762.8,581.7,758.9,581.6,751.1z"/>
			<path d="M647.6,723.8c-1.9,17.2-3.8,34.5-5.7,51.7c-6.5,0.8-9.7,1.1-16.2,1.9c-1.5-7.7-2.8-16.5-4-26.4
				c-0.5,4.4-1.7,13.4-3.6,27.2c-6.5,0.8-9.7,1.1-16.2,1.9c-2-16.9-4-33.7-6-50.6c5.1-0.6,7.6-0.9,12.7-1.4
				c0.6,7.1,0.9,10.6,1.4,17.7c0.6,6.9,0.8,10.3,1.4,17.1c0.6-11.9,2-23.8,3.5-35.6c5.4-0.6,8.1-0.9,13.5-1.5
				c0.2,1.5,0.7,7.1,1.5,16.7c0.6,7.7,0.9,11.6,1.5,19.3c0.9-12.3,2-24.5,3.5-36.7C640.1,724.7,642.6,724.4,647.6,723.8z"/>
			<path d="M677.4,744.3c0,4.1,0,6.1,0,10.2c0,3.7-0.2,6.5-0.5,8.3c-0.4,1.8-1.1,3.5-2.4,5.2c-1.2,1.7-2.7,3-4.6,3.9
				c-1.9,0.9-4.1,1.6-6.5,1.8c-2.7,0.3-5.1,0.3-7-0.1c-1.9-0.4-3.4-1.2-4.4-2.3c-1.1-1.1-1.8-2.5-2.3-4.3c-0.5-1.7-0.7-4.4-0.7-7.9
				c0-4.3,0-6.4,0-10.7c0-3.9,0.4-7,1.2-9.3c0.8-2.3,2.3-4.2,4.4-5.8c2.1-1.6,4.9-2.5,8.2-2.9c2.8-0.3,5.2-0.2,7.2,0.5
				c2,0.6,3.5,1.6,4.6,2.8c1.1,1.2,1.8,2.6,2.2,4C677.2,739.2,677.4,741.4,677.4,744.3z M665,742.6c0-2.1-0.1-3.5-0.3-4
				c-0.2-0.5-0.7-0.8-1.4-0.7c-0.7,0.1-1.2,0.4-1.5,1c-0.2,0.6-0.4,1.9-0.4,4.1c0,7.5,0,11.3,0,18.9c0,2,0.1,3.2,0.4,3.8
				c0.2,0.6,0.7,0.8,1.4,0.7c0.7-0.1,1.2-0.4,1.5-1c0.2-0.6,0.4-1.8,0.3-3.6C665.1,754.2,665.1,750.3,665,742.6z"/>
			<path d="M693.7,718.7c0,16.9,0,33.9,0,50.8c-5.1,0.6-7.6,0.9-12.7,1.5c0-17,0-33.9-0.1-50.9C686.1,719.5,688.6,719.3,693.7,718.7
				z"/>
			<path d="M713.3,716.5c0,2.6,0,3.9,0,6.4c-2.5,0.3-4,0.6-4.5,0.9c-0.5,0.3-0.7,1-0.7,2.1c0,0.5,0,0.8,0,1.3
				c2.1-0.2,3.1-0.3,5.2-0.6c0,2.6,0,3.9,0,6.6c-1.2,0.1-1.8,0.2-2.9,0.3c0,11.3,0,22.6,0,34c-4.9,0.6-7.4,0.9-12.3,1.4
				c0-11.3,0-22.7,0-34c-1,0.1-1.5,0.2-2.5,0.3c0-2.6,0-4,0-6.6c1-0.1,1.5-0.2,2.5-0.3c0-2.7,0.1-4.6,0.3-5.5
				c0.2-0.9,0.6-1.8,1.4-2.6c0.7-0.8,1.7-1.5,3-2c1.3-0.5,3.3-0.9,6.1-1.2C710.6,716.8,711.5,716.7,713.3,716.5z"/>
		</g>
	</g>
	<g>
		<g>
			<path d="M530.7,793.1c3.4,10.2,5,15.2,8.3,25c-5.6,0.7-8.4,1.1-14,1.8c-0.3-1.8-0.5-2.7-0.8-4.5c-2,0.3-3,0.4-4.9,0.6
				c-0.3,1.9-0.4,2.9-0.7,4.8c-5.7,0.7-8.6,1.1-14.3,1.8c2.5-10.7,3.8-16.1,6.3-27.1C518.7,794.5,522.7,794.1,530.7,793.1z
				 M523.8,810.8c-0.8-2.9-1.6-6.4-2.4-10.7c-1.3,5.2-2.1,9-2.4,11.3C520.9,811.2,521.8,811.1,523.8,810.8z"/>
			<path d="M554.2,790.3c0.1,10.5,0.1,15.7,0.2,25.9c-5.4,0.7-8.1,1-13.6,1.7c-0.2-10.3-0.2-15.5-0.4-26
				C546,791.2,548.7,790.9,554.2,790.3z"/>
			<path d="M559.1,789.7c3.9-0.5,5.8-0.7,9.6-1.2c6.4-0.8,10.7-1.2,12.9-1.2c2.2,0,4.1,0.4,5.5,1.2c1.4,0.8,2.1,2.4,2.1,4.6
				c0,2-0.5,3.4-1.5,4.2c-1,0.8-2.9,1.5-5.9,2c2.6,0,4.4,0.2,5.3,0.7c0.9,0.4,1.5,0.9,1.7,1.3c0.2,0.4,0.3,1.7,0.3,3.7
				c0,2.7,0,4,0,6.7c-4.9,0.6-7.4,0.9-12.3,1.6c0-3.4,0-5.1,0-8.5c0-1.4-0.2-2.2-0.6-2.5c-0.4-0.3-1.6-0.3-3.4-0.1c0,4.6,0,7,0,11.5
				c-5.3,0.7-8,1-13.4,1.7C559.2,805.3,559.2,800.1,559.1,789.7z M572.7,792.5c0,2.3,0,3.5,0,5.8c1.5-0.2,2.6-0.4,3.2-0.7
				c0.6-0.3,0.9-1,0.9-2.1c0-0.6,0-0.9,0-1.4c0-0.8-0.3-1.3-0.9-1.5C575.3,792.3,574.3,792.3,572.7,792.5z"/>
			<path d="M621.8,789.8c-4.9,0.6-7.3,0.9-12.2,1.5c0-0.8,0-1.1,0-1.9c0-0.9-0.1-1.4-0.4-1.6c-0.3-0.2-0.8-0.3-1.6-0.2
				c-0.8,0.1-1.4,0.3-1.8,0.7c-0.4,0.4-0.6,0.9-0.6,1.6c0,0.9,0.2,1.5,0.7,1.9c0.4,0.4,1.7,0.7,3.7,1.1c5.8,1,9.4,2,10.9,2.9
				c1.5,0.9,2.2,2.6,2.1,5.1c0,1.8-0.5,3.2-1.3,4.1c-0.9,1-2.5,1.9-4.9,2.8c-2.4,0.9-5.2,1.5-8.4,1.9c-3.5,0.5-6.5,0.5-9,0.2
				c-2.5-0.3-4.1-1-4.9-1.9c-0.8-0.9-1.1-2.4-1.1-4.3c0-0.7,0-1,0-1.7c4.9-0.6,7.4-0.9,12.3-1.5c0,1.2,0,1.9,0,3.1
				c0,1,0.1,1.5,0.5,1.8c0.3,0.2,0.9,0.3,1.8,0.2c0.9-0.1,1.5-0.4,2-0.8c0.4-0.4,0.6-0.9,0.7-1.6c0-1.5-0.4-2.4-1.2-2.8
				c-0.8-0.4-2.9-0.9-6.1-1.5c-3.3-0.7-5.4-1.2-6.5-1.6c-1.1-0.4-1.9-0.9-2.6-1.7s-1-1.9-1-3.2c0-2,0.5-3.5,1.5-4.5
				c1-1,2.6-2,4.9-2.7c2.2-0.8,4.9-1.4,8.1-1.7c3.4-0.4,6.3-0.5,8.7-0.2c2.4,0.3,4,0.8,4.7,1.5c0.8,0.8,1.1,2.2,1.1,4.2
				C621.8,789.2,621.8,789.4,621.8,789.8z"/>
			<path d="M655.7,792.8c-0.1,2.5-0.3,4.3-0.5,5.4c-0.3,1.1-1,2.1-2.3,3.1c-1.2,1-2.9,1.9-5,2.6c-2.1,0.7-4.5,1.3-7.3,1.6
				c-2.6,0.3-5,0.4-7.1,0.3c-2.1-0.2-3.8-0.6-5-1.3c-1.3-0.7-2-1.6-2.2-2.6c-0.2-1-0.3-2.8-0.2-5.4c0-1.7,0.1-2.6,0.1-4.4
				c0.1-2.6,0.2-4.4,0.5-5.5c0.3-1.1,1-2.2,2.3-3.2c1.3-1,3-1.9,5.1-2.7c2.1-0.7,4.6-1.3,7.4-1.6c2.7-0.3,5-0.4,7.1-0.2
				c2.1,0.2,3.8,0.7,5,1.4c1.2,0.7,2,1.6,2.2,2.6c0.2,1,0.3,2.8,0.2,5.4C655.8,790.2,655.7,791.1,655.7,792.8z M643.1,786.1
				c0-1.2-0.1-1.9-0.3-2.2c-0.2-0.3-0.8-0.4-1.6-0.3c-0.7,0.1-1.2,0.3-1.6,0.6c-0.4,0.3-0.6,1.1-0.6,2.4c-0.1,4.8-0.2,7.1-0.3,11.8
				c0,1.5,0,2.4,0.3,2.7c0.2,0.3,0.8,0.4,1.6,0.3c0.9-0.1,1.4-0.4,1.7-0.8c0.3-0.4,0.4-1.4,0.5-2.9
				C642.9,793.1,643,790.7,643.1,786.1z"/>
			<path d="M660.5,777.4c8.7-1,13-1.6,21.5-2.6c-0.1,2-0.1,3-0.2,5.1c-3.5,0.4-5.2,0.6-8.8,1.1c-0.1,1.9-0.1,2.9-0.2,4.8
				c3.1-0.4,4.7-0.6,7.8-1c-0.1,1.9-0.1,2.9-0.2,4.8c-3.1,0.4-4.7,0.6-7.8,1c-0.2,4.2-0.3,6.3-0.5,10.5c-5,0.6-7.5,1-12.6,1.6
				C659.9,792.7,660.1,787.6,660.5,777.4z"/>
			<path d="M709.8,771.5c-0.1,2-0.2,3-0.3,5c-2.9,0.4-4.4,0.5-7.4,0.9c-0.5,8-0.7,12-1.1,19.9c-4.9,0.6-7.4,1-12.4,1.6
				c0.4-7.9,0.6-11.9,1-20c-3,0.4-4.4,0.5-7.4,0.9c0.1-2,0.1-3,0.2-5.1C693.5,773.4,698.9,772.8,709.8,771.5z"/>
		</g>
	</g>
	<polygon class="st1" points="781,443 781,806 403,853 402,488 	"/>
</g>
</svg>
