<?xml version="1.0" encoding="utf-8"?>
<!-- Generator: Adobe Illustrator 24.1.2, SVG Export Plug-In . SVG Version: 6.00 Build 0)  -->
<svg version="1.1" id="Слой_1" xmlns="http://www.w3.org/2000/svg" xmlns:xlink="http://www.w3.org/1999/xlink" x="0px" y="0px"
	 viewBox="0 0 1000 1000" style="enable-background:new 0 0 1000 1000;" xml:space="preserve">
<style type="text/css">
	.st0{fill:none;}
</style>
<g id="Слой_1_1_">
	
		<image style="display:none;overflow:visible;enable-background:new    ;" width="4288" height="2848" xlink:href="AAF752D6.jpeg"  transform="matrix(0.2589 0 0 0.2454 -71 90)">
	</image>
	
		<image style="display:none;overflow:visible;enable-background:new    ;" width="600" height="285" xlink:href="AAF752DA.jpeg"  transform="matrix(0.555 0.5125 -0.7018 0.76 157.0076 534)">
	</image>
</g>
<g id="Слой_2_1_">
	<path d="M748.2,434.4c0,0-56.3-106,33.6-115.2l-0.7-14.7l-8.8-10.1h5.1l-0.7-12.4h2.2l-1.5-59.6h-27.8l-6.9-13.5h-9.5l-4.4,13.1
		l-517.6-3.9l-5.1-8.5H201l-9.1,8.1h-15.4v15.5h-8.8V279h7.3l0.7,7.7h4.4v3.1h-4.4c0,0-1.5,54.1,16.1,48l178.4,5.4
		c0,0,44.6-7,19,89.7l5.1,7l125.7,4.6l32.2-12.4c0,0,18.3-3.1,26.3,17.8l59.2,145.4c0,0,2.2,40.2,11.7,41.8V651h136.7v-13.9h21.2
		l24.9-15.5v-34.8C832.3,586.8,814,536.5,748.2,434.4z M516.8,427.1c0,0-57,0-79-2.3c-21.9-2.3-21.9-23.2-21.9-23.2v-34
		c12.4-27.1,31.4-19.3,31.4-19.3l64.3,5.4c27.8,19.3,14.6,69.6,14.6,69.6c13.2-3.9,23.4-38.7,23.4-38.7
		C560.7,422.5,516.8,427.1,516.8,427.1z"/>
	<path class="st0" d="M516.8,427.1c0,0-57,0-79-2.3c-21.9-2.3-21.9-23.2-21.9-23.2v-34c12.4-27.1,31.4-19.3,31.4-19.3l64.3,5.4
		c27.8,19.3,14.6,69.6,14.6,69.6c13.2-3.9,23.4-38.7,23.4-38.7C560.7,422.5,516.8,427.1,516.8,427.1z"/>
</g>
<g id="Слой_3">
	<path d="M65,666l16,35l42-26l-12-40c0,0,57-4,42,59c0,0-3,3,5,11s174,160,174,160s10,5,12,3c0,0,31-6,32-2c0,0,40,28,1,69l-12-35
		l-42,25l10,29l-2,13c0,0-40-1-40-41l-1-21c0,0,1-3-4-9L113,734c0,0-13-2-31,3C82,737,21,743,65,666z"/>
</g>
</svg>
