<?xml version="1.0" encoding="utf-8"?>
<!-- Generator: Adobe Illustrator 24.1.2, SVG Export Plug-In . SVG Version: 6.00 Build 0)  -->
<svg version="1.1" xmlns="http://www.w3.org/2000/svg" xmlns:xlink="http://www.w3.org/1999/xlink" x="0px" y="0px"
	 viewBox="0 0 1000 1000" style="enable-background:new 0 0 1000 1000;" xml:space="preserve">
<style type="text/css">
	.st0{fill:none;}
</style>
<g id="Слой_1">
	<path d="M986,395H791v6h-40v-6h-23l-1-13h-10l-10-26h-6v-15l-9-9l-177,17l-11,7l1,24h-5v11h-8v-7l-19,5l-2-14l-184,5v10h-10l-42-48
		h-13l1,61l-46,1v3h-28v-3H75v2h-2l-1-3h-5v3h-3v-3l-35,1v22h34v-2h6v2h4v-2h2v2h29v1h46v-3h27v2h45v5h-8v6l13,5h8v-16h31v13h3v6
		l-7,5v14l10-6v-19h15v12l185,2v-13l21,3v-9h9v11l14,8l1,37l-4,3v3h7c0,0,2,56-24,104l69,21c0,0,28-55,29-113h2v2h8v-3h44v2h20
		c0,0,21,3,9,21h8l25,41l-4,4l4,6l60-13l-61-83v-20c0,0,9-15,31-12v-19h10v-5h13l11,9h16v6h39v22l7,7h17v9h15v-9h14l38,25v-17l49,58
		C969,539,989,498,986,395z M265,407h-27v-7h27V407z M231,393v-16h7l-1-15h7l26,31H231z M531,373l-4-4h-9v-12l3-2l125-1l3,3v12l-8,4
		H531z M648,504h-38c0,0-22-14,0-33h25c0,0,9,17,0,28c0,0,12-1,9-28h4C648,471,671,486,648,504z M970,452h-39v-9h39V452z"/>
	<polygon class="st0" points="270,393 231,393 231,377 238,377 237,362 244,362 	"/>
	<rect x="238" y="400" class="st0" width="27" height="7"/>
	<polygon class="st0" points="649,357 649,369 641,373 531,373 527,369 518,369 518,357 521,355 646,354 	"/>
	<path class="st0" d="M648,504h-38c0,0-22-14,0-33h25c0,0,9,17,0,28c0,0,12-1,9-28h4C648,471,671,486,648,504z"/>
	<rect x="931" y="443" class="st0" width="39" height="9"/>
</g>
<g id="Слой_2">
	<path d="M221,696L61,977h313L221,696z M221,728l121,229H97L221,728z"/>
	<polygon class="st0" points="342,957 97,957 221,728 	"/>
	<polygon class="st0" points="342,957 97,957 221,728 	"/>
	<polygon points="213,788 178,881 226,867 218,914 208,907 211,935 232,914 224,916 248,849 201,861 236,788 	"/>
</g>
</svg>
