<?xml version="1.0" encoding="utf-8"?>
<!-- Generator: Adobe Illustrator 24.1.2, SVG Export Plug-In . SVG Version: 6.00 Build 0)  -->
<svg version="1.1" xmlns="http://www.w3.org/2000/svg" xmlns:xlink="http://www.w3.org/1999/xlink" x="0px" y="0px"
	 viewBox="0 0 1000 1000" style="enable-background:new 0 0 1000 1000;" xml:space="preserve">
<style type="text/css">
	.st0{fill:none;}
	.st1{font-family:'Impact';}
	.st2{font-size:229.6882px;}
</style>
<g id="Слой_1">
	<path d="M975.96,362.36l-7.39-4.5l-148.82-0.65l-16.39,12.22l-18.97-0.32L733.61,354l-13.82-0.32l-30.22-28.29l-225.32-1.93
		l-0.32-3.85l4.5,0.32v-11.57h-2.25v4.18h-2.89v-4.18h-6.75l-2.25,3.85H390v10.29h-4.5l-2.57-3.86l-119.25,0.97l-4.82,8.03
		l-81.65,0.32c-9,22.83-29.89,28.93-29.89,28.93l-76.18,0.32l-6.1-42.42l-15.43-2.58v43.08h-18c-6.18,15.59-14.51,16.37-15.88,16.39
		l29.38-0.32l7.07,10.6l7.71-0.32v-2.89l85.5,0.96l0.65,2.58l12.85-0.33l0.32-2.57h99l0.33,4.18h3.85l3.54,3.22l124.71,2.25l22.82,9
		l21.54-0.65l2.25-5.46l53.36,0.32c-6.75,78.11-91.29,124.39-91.29,124.39l36.97,53.04c117.32-66.54,125.35-167.14,125.35-167.14
		l1.93,0.96v18.32l13.82,12.22v-7.4h5.47c1.28,8.68,7.07,7.4,7.07,7.4h47.89c8.04-0.97,8.68-8.04,8.68-8.04l7.71,0.32l25.08,65.57
		v4.82c-5.79,34.08,44.35,0,44.35,0v-11.57l-23.14-63.96l8.36-9.97v-4.82h10.6l246.22,55.93c11.25,2.89,17.03-3.53,17.03-3.53
		L975.96,362.36z M65.14,351.86h-12v-11.15h12V351.86z M254.57,354H177l6.86-7.71h70.71V354z M643.18,424.07
		c-1.93,5.68-8.57,6.54-8.57,6.54h-42.22c-5.57,0-6.53-4.61-6.53-4.61v-26.14h33.75c16.71,10.18-4.61,25.82-4.61,25.82
		c18.54-2.25,17.14-22.82,17.14-22.82l3-0.11l0.11-2.89h7.93V424.07z"/>
	<rect x="53.14" y="340.71" class="st0" width="12" height="11.15"/>
	<polygon class="st0" points="254.57,346.29 254.57,354 177,354 183.86,346.29 	"/>
	<path class="st0" d="M643.18,399.86v24.21c-1.93,5.68-8.57,6.54-8.57,6.54h-42.22c-5.57,0-6.53-4.61-6.53-4.61v-26.14h33.75
		c16.71,10.18-4.61,25.82-4.61,25.82c18.54-2.25,17.14-22.82,17.14-22.82l3-0.11l0.11-2.89H643.18z"/>
</g>
<g id="Слой_3">
	<text transform="matrix(1.1123 0 0 1 27.3014 939.5007)" class="st1 st2">ВВД</text>
</g>
<g id="Слой_2">
</g>
</svg>
